<svg height="25" viewBox="0 0 42 25" width="42" xmlns="http://www.w3.org/2000/svg"><g fill="none" fill-rule="evenodd"><path d="m0 0h42v25h-42z" fill="#0072ce"/><g fill="#fff"><path d="m35.4510917 14.5595449h-1.4838771c-.1481515 0-.2465766.0055313-.329488.0613563-.0858908.0550056-.1189732.1366433-.1189732.2444009 0 .1281415.0725346.2153105.1780489.2530052.0858908.0298075.1781515.0385141.3137686.0385141l.4412693.0117796c.4452762.0109602.7425037.0872715.9237375.273389.0329796.0259151.0528084.0550056.075514.0840961zm0 2.2394542c-.1977749.2883439-.5831535.4345133-1.1048684.4345133h-1.5723365v-.7283885h1.5659666c.1553432 0 .2640424-.0203839.3294879-.0840961.0567126-.0525472.0962676-.1288585.0962676-.2215588 0-.0989485-.039555-.1775133-.0994525-.2246317-.0590757-.0518302-.1450692-.0753894-.2868508-.0753894-.76449-.0259151-1.7182276.0235592-1.7182276-1.0513542 0-.4926943.3137687-1.0113036 1.1681564-1.0113036h1.6217546v-.6758414h-1.5067883c-.4547282 0-.7850381.1085772-1.0189776.2773838v-.2773838h-2.2287438c-.3564059 0-.7747641.0880909-.9726418.2773838v-.2773838h-3.9799512v.2773838c-.3167481-.227807-.8512028-.2773838-1.0978821-.2773838h-2.6252184v.2773838c-.2505834-.2419425-.8078465-.2773838-1.1475057-.2773838h-2.9380624l-.6723321.7254181-.6296949-.7254181h-4.3888572v4.7396984h4.3062541l.6927774-.7368904.6526059.7368904 2.6543967.0023559v-1.1149641h.2609602c.3521935.0054289.7675723-.0087066 1.1340467-.1666556v1.2791613h2.1893943v-1.2353207h.105617c.1347952 0 .1480487.0055313.1480487.1398186v1.0953997h6.6509916c.4222624 0 .8636344-.1077577 1.1080535-.3032989v.3032989h2.1096679c.439009 0 .867744-.0613563 1.1939442-.2184858zm-3.2477215-1.3570091c.1585282.1635827.2434944.3700841.2434944.7196819 0 .7307445-.4579132 1.0718405-1.2790132 1.0718405h-1.5857955v-.7283885h1.5794256c.1544186 0 .2639397-.0203839.3325702-.0840961.0559934-.0525472.0961648-.1288585.0961648-.2215588 0-.0989485-.0434591-.1775133-.0993498-.2246317-.0622605-.0518302-.1481514-.0753894-.2899329-.0753894-.7614079-.0259151-1.71494.0235592-1.71494-1.0513542 0-.4926943.310481-1.0113036 1.1640469-1.0113036h1.632234v.7229597h-1.4935347c-.1480487 0-.2443163.0055312-.3262003.0613563-.0891785.0550055-.1222608.1366432-.1222608.2444009 0 .1281415.0757195.2153105.1781515.2530052.0858909.0298075.1781516.0385141.3168509.0385141l.4382898.0117796c.4419885.0107553.7453804.0869641.9297991.2731841zm-7.3467485-.2097792c-.1089047.0644293-.2435971.0699606-.4020225.0699606h-.9890803v-.7629079h1.0025392c.1449665 0 .2900357.0030729.3885636.0613563.1055142.0550056.1685967.1602025.1685967.3055524s-.0630825.2624288-.1685967.3260386zm.4917147.4227338c.1812338.0666827.3293852.18622.3988376.2851685.1149663.1658362.1316103.3206098.134898.6200163v.673383h-.8174013v-.4249872c0-.2043503.0197261-.5069322-.1316103-.6648812-.1189732-.1216883-.3003097-.1507788-.5973317-.1507788h-.870107v1.2406472h-.8181205v-3.3968248h1.8797353c.4121938 0 .7124008.0181304.9796281.1603049.2569533.1547736.4185637.3668063.4185637.7543037-.0001027.5421685-.3627757.8188353-.5770919.9036484zm1.0285325-1.818257h2.7173764v.7024735h-1.9065505v.6175579h1.8600092v.6930498h-1.8600092v.6758413l1.9065505.0030729v.7048294h-2.7173764zm-5.493212 1.5676077h-1.0521627v-.8650318h1.0616148c.2939398 0 .4979819.1194348.4979819.4164854 0 .2937728-.19459.4485464-.507434.4485464zm-1.8630914 1.5202845-1.2500404-1.3836412 1.2500404-1.3396982zm-3.2282008-.3989697h-2.0017907v-.6758413h1.7874745v-.6930498h-1.7874745v-.6175579h2.0412429l.8905524.9898955zm6.4728401-1.5698612c0 .9435966-.7061336 1.1384208-1.4178152 1.1384208h-1.0158954v1.1393427h-1.5825078l-1.0025392-1.1244902-1.0418887 1.1244902h-3.2250159v-3.3968248h3.2746394l1.0017173 1.1134276 1.0356215-1.1134276h2.6015882c.6461333 0 1.3720958.1783328 1.3720958 1.1190613z"/><path d="m9.09503713 9.92217539-.55726302-1.35383369-.55407808 1.35383369zm12.27643037-.53909561c-.1118841.06770705-.2442135.06996053-.4027417.06996053h-.9890802v-.75430364h1.0025392c.1418842 0 .2899329.00635073.3860978.06125388.1056169.04947429.1709597.1547736.1709597.30022596 0 .14842287-.0621578.26785769-.1677748.32286327zm7.0559937.53909561-.5634274-1.35383369-.5603452 1.35383369zm-13.1528046 1.46538131h-.8346616l-.0030822-2.65972956-1.180588 2.65972956h-.7148666l-1.1836702-2.66208548v2.66208548h-1.65596706l-.31284401-.757479h-1.69521383l-.31602896.757479h-.88428518l1.45798664-3.39600531h1.2096635l1.3847329 3.21531661v-3.21531661h1.3288421l1.065519 2.30378101.9788062-2.30378101h1.3555546v3.39600531zm3.326626 0h-2.7198421v-3.39600531h2.7198421v.70718528h-1.9056258v.61212908h1.8599064v.69612275h-1.8599064v.6781972h1.9056258zm3.834882-2.48139677c0 .54145153-.3624676.82119124-.5737015.90518486.1781516.06760462.3303098.18703944.4027417.28598801.1149663.1689091.1347952.3197903.1347952.6230892v.6671347h-.8212027l-.0030822-.428265c0-.2043503.0196234-.4982256-.128528-.6616034-.1189732-.1194348-.3003097-.1453499-.5934276-.1453499h-.8740112v1.2352183h-.8141136v-3.39600531h1.8726462c.416098 0 .7226748.01096014.9858953.16266081.2575698.15170066.4119884.373157.4119884.75194773zm1.3029516 2.48139677h-.8307575v-3.39600531h.8307575zm9.6378557 0h-1.1537728l-1.543261-2.54889896v2.54889896h-1.6581246l-.3168509-.757479h-1.6913097l-.3073988.757479h-.9527102c-.3957554 0-.8968195-.0872714-1.180588-.3756154-.2861315-.2883439-.4350021-.6789142-.4350021-1.29647215 0-.50365441.088973-.96408283.4389062-1.32791859.2632205-.27103306.6754143-.39599917 1.2364787-.39599917h.7882231v.72767152h-.7716819c-.2971247 0-.4648995.04404544-.6265099.20117496-.1388021.14299401-.2340423.41331005-.2340423.76925861 0 .36383572.0725346.62616212.223871.79752962.1253431.1343898.3531182.1751574.5674343.1751574h.3656525l1.1475056-2.67068968h1.2199376l1.3784657 3.21214128v-3.21214128h1.2396636l1.4311715 2.36513728v-2.36513728h.8339424zm-26.89297504.6670322h1.39110275l.31366593-.7543036h.70222949l.31284401.7543036h2.73710256v-.5766878l.2443162.5791462h1.4208975l.2443162-.5877505v.5852921h6.8022254l-.003185-1.2381888h.1316102c.092158.0031754.119076.0116772.119076.1633778v1.074811h3.5181338v-.2882415c.2837685.1515983.7251405.2882415 1.3059311.2882415h1.4800757l.3167482-.7543036h.7022295l.3097618.7543036h2.8521716v-.7165065l.4319199.7165065h2.2855592v-4.73642048h-2.2619289v.559377l-.3167482-.559377h-2.3210046v.559377l-.2908576-.559377h-3.1351182c-.5247971 0-.9861007.07303347-1.3587395.27656435v-.27656435h-2.1635039v.27656435c-.2371244-.20977918-.5602424-.27656435-.919525-.27656435h-7.9041144l-.530345 1.22333629-.544626-1.22333629h-2.48960132v.559377l-.2734945-.559377h-2.12322965l-.98599801 2.2519508v2.48446968z"/></g></g></svg>