<svg height="25" viewBox="0 0 42 25" width="42" xmlns="http://www.w3.org/2000/svg"><g fill="none" fill-rule="evenodd"><path d="m0 0h42v25h-42z" fill="#0069aa"/><g transform="translate(13.02 5.88)"><path d="m0 7.12586905c0-3.64111674 2.94571241-6.59279213 6.5793263-6.59279213 3.633761 0 6.5794734 2.95167539 6.5794734 6.59279213 0 3.64111675-2.9457124 6.59293945-6.5794734 6.59293945-3.63361389 0-6.5793263-2.9518227-6.5793263-6.59293945" fill="#0069aa"/><path d="m10.8437862 6.8166139c-.0026469-1.68831353-1.05582148-3.1281983-2.53985351-3.69843511v7.39657551c1.48403203-.57097353 2.53720661-2.00953217 2.53985351-3.6981404zm-5.37086665 3.6966669v-7.39436527c-1.48270858.57200498-2.53426556 2.00982689-2.53823592 3.69769837.00397036 1.68742944 1.05552734 3.125104 2.53823592 3.6966669zm1.41624182-9.94849572c-3.44568356.00132613-6.23728721 2.79917019-6.23787541 6.25182882.0005882 3.4522166 2.79219185 6.2496186 6.23787541 6.250208 3.44568353-.0005894 6.23787543-2.7979914 6.23875773-6.250208-.0008823-3.45265863-2.7930742-6.25050269-6.23875773-6.25182882zm-.01529323 13.09201822c-3.77051777.0179765-6.87386814-3.0428838-6.87386814-6.76887296 0-4.07210967 3.10335037-6.88866694 6.87386814-6.8879302h1.76695688c3.72596148-.00073674 7.12650058 2.81449439 7.12650058 6.8879302 0 3.72466306-3.4005391 6.76887296-7.12650058 6.76887296z" fill="#fff"/></g></g></svg>