<svg height="25" viewBox="0 0 42 25" width="42" xmlns="http://www.w3.org/2000/svg"><g fill="none" fill-rule="evenodd"><path d="m0 0h42v25h-42z" fill="#000"/><g transform="translate(7.56 7.56)"><path d="m4.05879033 2.1312375c.29238954-.0944725.60517974-.1457625.93063856-.1457625 1.4203732 0 2.60515752.9753725 2.87696797 2.2710775l2.01276536-.39675c-.46183987-2.202135-2.47531895-3.8598025-4.88973333-3.8598025-.55278039 0-1.08486275.087055-1.58155621.2474225z" fill="#fff100"/><path d="m1.68385686 8.43641725 1.3608366-1.4873525c-.60743987-.5200875-.99082941-1.279375-.99082941-2.12566 0-.8457675.38303268-1.605055.99029412-2.12474l-1.36155033-1.48718c-1.03216601.8836025-1.68260784 2.174305-1.68260784 3.61192 0 1.4382475.65139346 2.72941 1.68385686 3.6130125" fill="#00a4e0"/><path d="m7.86567719 5.39306875c-.27276209 1.29467-1.45695163 2.2682025-2.87625425 2.2682025-.32563725 0-.6390817-.051405-.93153072-.1461075l-.65192876 1.883585c.49752615.1610575 1.02984641.24817 1.58345948.24817 2.41251111 0 4.42491961-1.6554825 4.88866275-3.855375z" fill="#ee4023"/><g fill="#fefefe"><path d="m16.5787547 6.72388325c-.3323582.31257-.7830758.50301-1.2807209.4961675-.3411013-.00552-.6571628-.1042475-.9258804-.268755l-.6662033 1.02626c.4562491.2788175.9942196.443785 1.5741811.4524675.8442183.0121325 1.6136738-.3084875 2.1731751-.83789z"/><path d="m13.5446065 5.66866625c-.0075536-.068195-.0129065-.138115-.0108843-.2086675.0158209-.957605.8308954-1.7217225 1.8206543-1.7058525.5387438.0069575 1.0171183.2454675 1.3404954.6146175zm1.8279105-3.1257575c-1.6799314-.0248975-3.0643804 1.2725325-3.0897177 2.897885-.0098137.609155.1722458 1.17875.4925896 1.652205l5.5146595-2.278725c-.3102922-1.284205-1.4916863-2.249745-2.9175314-2.271365z"/><path d="m20.0199465 1.21654475v5.683645l1.0201516.408825-.4825974 1.12102-1.008851-.4054325c-.2268457-.095105-.3803562-.240005-.4969908-.40365-.1119954-.16744-.1950255-.39629-.1950255-.7051225v-5.699285z"/><path d="m23.6975955 3.84307c.1784314-.0579025.3694124-.0889525.5681255-.0889525.8669385 0 1.5900614.5951825 1.7556457 1.3862675l1.2287974-.2421325c-.2818621-1.344235-1.5110163-2.35612-2.9844431-2.35612-.3376517 0-.6620994.05313-.9650758.1509375z"/><path d="m22.2481915 7.691384.8303007-.9077525c-.3708399-.3174-.6043471-.780965-.6043471-1.29766 0-.5161775.2335072-.979455.6039902-1.2966825l-.8308954-.9077525c-.6299223.53935-1.0268131 1.327445-1.0268131 2.204435 0 .8780825.3971882 1.66589 1.0277647 2.2054125"/><path d="m26.0213846 5.83386375c-.166536.789935-.8895399 1.3846-1.7557053 1.3846-.198832 0-.389932-.0315675-.5686607-.0892975l-.397902 1.1495975c.3038092.0982675.6286732.15157.9665627.15157 1.4721183 0 2.7009157-1.010505 2.9841458-2.353245z"/></g></g></g></svg>