<svg height="25" viewBox="0 0 42 25" width="42" xmlns="http://www.w3.org/2000/svg"><g fill="none" fill-rule="evenodd"><path d="m0 0h42v25h-42z" fill="#951315"/><path d="m28.5843266 13.9281011c-.4499702.4422914-1.7130722.5679253-1.5838447-.4893151.1073085-.8780122 1.0595233-1.0646818 2.0914508-.9378604-.0767165.4802903-.1647079 1.0901727-.5076061 1.4271755zm-1.4214233-3.4252055c-.0429707.2422431-.1089643.4614492-.1624214.6931634.5152541-.1296713 2.1196774-.5273931 2.2742931.1630786.0513283.2294184-.037215.4731656-.1015528.6524729-1.4509114-.1379835-2.6334334.104022-2.9443994 1.1417088-.2083093.6950633.0233383 1.3790435.4670797 1.569988.8546043.3675603 1.8941009-.0535151 2.2539509-.6320484-.0373726.2002859-.0727742.4025509-.0609474.6523937h.7513958c.0078846-.7224542.1125911-1.3072415.2233688-1.9573394.094299-.5535966.2717798-1.1016516.2435532-1.5902542-.0644955-1.1189886-1.9108162-.7231667-2.9443205-.6931634zm7.5335908 3.7717872c-.5878707.0126663-.8801503-.3525982-.893554-.9582057-.0233382-1.0606445.4400357-2.2390063 1.380818-2.3446908.4380646-.0491611.7552593.0531193 1.0763174.1631578-.2947238 1.1913448-.1883615 3.1101312-1.5635814 3.1397387zm1.9492926-5.60673844c-.0748242.65880601-.1748789 1.29235859-.3045006 1.89606614-2.1418329-.68065534-3.4553169.9015241-3.431821 2.8544303.0046518.3776141.0693838.7521408.3046582 1.0193206.4054226.4604201 1.566341.5706169 2.1524771.1835822.1134584-.0748895.229361-.2112106.3045794-.305812.0565321-.071248.1461792-.2576009.1623425-.2040066-.0307496.2070148-.0767953.398751-.0811318.6321276h.7919223c.1526446-2.1982367.6245338-4.0758575.9746858-6.07570824zm-22.3569038 5.28058114c-.4670797.4967565-1.6156193.4891567-1.7056607-.3466608-.0391861-.3636812.0957182-.7450161.1624214-1.1212844.0674915-.3808598.1160603-.7462826.1827634-1.080673.4601412-.5641254 1.8121807-.6322068 1.9493715.3058912.1190564.8144432-.2020017 1.8313097-.5888956 2.242727zm.6904484-3.4456299c-.7390171-.2787378-1.639746.0539902-2.030188.3704894.0013404.0139329-.0093037.0158328-.0207363.016862.006623-.0056207.0137979-.0112414.0207363-.016862-.0000788-.0011875-.0001577-.0022166-.0004731-.0034833.006623-.1361627.0543245-.2309225.0609475-.3670061h-.751317c-.3130948 2.0914439-.6843773 4.1243853-1.0762386 6.1368232h.873133c.1263891-.7837274.2098863-1.6105994.385869-2.3446116.1993998.7720111 1.5014513.6244487 2.0509243.3262364 1.1336379-.6155031 2.0080324-3.544902.4873429-4.118448zm4.142375 1.4679452h-2.0508454c.0648897-.473403.4890775-.9937505 1.1573703-1.0193998.6290279-.0241451 1.0793924.2318725.8934751 1.0193998zm-.8325276-1.5494845c-.6309202.0487653-1.1642299.2310809-1.5432393.6320485-.4647932.49169-.8412795 1.5788545-.7310538 2.5688843.1573753 1.4124509 1.9089239 1.3617857 3.3099262 1.0193998.0238113-.2478637.0835761-.4597868.1218161-.6931634-.5770689.2168313-1.5791928.5194767-2.1727403.1427334-.4481568-.2845168-.4507587-1.0049919-.3045795-1.631103.9415708-.0300825 1.9201988-.0243035 2.8631887 0 .0597648-.4437955.2309379-.9276483.0811318-1.3659815-.1975863-.5786125-.9047499-.7284706-1.6244499-.6728181zm-7.6756701.0815393c-.0236536.0034041-.0220767.0322199-.0203421.0611149-.1923826 1.4446709-.4527298 2.8211812-.73097489 4.1796421h.87313299c.2098074-1.4544081.4502067-2.8781004.751317-4.240757zm22.7833782.0203453c-.7717379-.3873513-1.4140907.2627466-1.6650553.6523937.0714338-.1999692.0755338-.4677032.1420792-.672739h-.7715802c-.2080728 1.4561497-.4589586 2.8693923-.7513959 4.240757h.8934751c.0057557-.5620671.1155873-.9778385.2030267-1.5291393.1867846-1.1769369.4608509-2.4677122 1.8276344-2.0795692.045336-.1990984.0641801-.4248753.121816-.6117032zm-9.807805 3.2213572c-.0805011-.2087565-.1013951-.5535174-.0812896-.8155515.0451784-.5891414.258928-1.3063707.5888957-1.6310239.4553317-.4481496 1.3542471-.3739725 2.0712664-.1223881.0221555-.2426389.0707242-.4589951.1015527-.6930842-1.175899-.1928444-2.2918755-.0729104-2.8835308.55043-.5791188.610199-.9588378 2.0127545-.6904484 2.8951207.3141986 1.0326202 1.7226913 1.0887478 2.8632676.6932425.050461-.207569.0771107-.4389665.121816-.6524728-.6231145.3251281-1.8146249.4940649-2.0915296-.2242727zm-.4873429-3.2417025c-.7741821-.3139659-1.382868.2165938-1.6650553.7135878.0639435-.2211061.0903567-.4800528.1420792-.7135878h-.7716591c-.188598 1.4688952-.4666854 2.8479388-.7309749 4.240757h.8732119c.1223679-.8267928.1751943-1.9411899.4466587-2.7320421.2169823-.6319693.7848262-1.1703663 1.6041867-.8766664.0115114-.2331391.077978-.4111007.1015528-.6320485zm-14.07207495-1.71264227c-.12473329.81262242-.26523563 1.60941197-.40613221 2.40580567-.90459227.0095789-1.82818627.0448862-2.7006885-.0204244.1647867-.7790567.28297582-1.60505792.44673754-2.38538127h-.97468576c-.34896936 1.98758027-.66632174 4.00674707-1.05589643 5.95339927h.994949c.15611372-.9986587.3020564-2.0074505.50760613-2.9563148.84845441-.0209786 1.86516472-.0575525 2.68042526.0204244-.16801936.9865466-.37120373 1.937865-.52794822 2.9358904h.99502785c.3196389-2.016871.65654492-4.0164843 1.05589639-5.95339927zm2.47731975.89709082c.1740904-.12032987.3982477-.66878073.1421581-.89709082-.0811318-.07227708-.2169035-.09325564-.4061322-.0611149-.1755885.02976581-.2765894.08961408-.3451848.18350304-.1103834.15080816-.2113843.60568671-.0406053.77470268.1662847.16458275.5389865.07655196.6497642 0z" fill="#fefefe"/></g></svg>