<svg height="25" viewBox="0 0 42 25" width="42" xmlns="http://www.w3.org/2000/svg"><g fill="none" fill-rule="evenodd"><path d="m0 0h42v25h-42z" fill="#006"/><path d="m23.5740208 12.8038689c0 4.5268674-3.6693933 8.1961311-8.1961311 8.1961311-4.5268674 0-8.1965197-3.6692637-8.1965197-8.1961311 0-4.52673783 3.6696523-8.19639015 8.1965197-8.19639015 4.5267378 0 8.1961311 3.66965232 8.1961311 8.19639015" fill="#c00"/><path d="m26.3819246 4.60747875c-2.1182978 0-4.047744.80346099-5.5026003 2.12153596-.2959711.26864068-.5722539.55878297-.8272941.86770679h1.656013c.2261555.27537612.4345658.56487077.6248421.86809537h-2.9058268c-.1738263.27861431-.3318503.56810896-.4722584.86809537h3.8500846c.1316002.28094581.2473981.57031093.3471345.86770676h-4.5443536c-.0945553.2826297-.1743445.5722539-.2380721.8675773h5.0202387c.1202018.5595601.1841886 1.1401037.1841886 1.7356726 0 .9099329-.1483094 1.7857999-.4220016 2.603768h-4.5443536c.0997364.2971368.2155342.5868905.3468754.8682249h3.8503437c-.1406672.2992092-.297914.5889629-.4727765.8679658h-2.9050497c.1894992.3023179.398298.5922012.6249717.8671887h1.6554949c-.2545222.3091829-.531064.5993252-.8279418.8679658 1.4547268 1.318075 3.3840435 2.1210179 5.5023413 2.1210179 4.5266083 0 8.1961311-3.6692637 8.1961311-8.1961311 0-4.52634924-3.6695228-8.19639015-8.1961311-8.19639015" fill="#f90"/><g fill="#006"><path d="m13.4638573 13.7012376c-.0933896-.0106213-.1345794-.013989-.1986957-.013989-.5043813 0-.7594215.1730491-.7594215.514873 0 .2104827.1244762.3442849.3187679.3442849.3625483 0 .6238059-.3450621.6393493-.8451689zm.6472504 1.5065379h-.7375313l.0169681-.3503727c-.2248602.2766714-.5249762.4087897-.9326002.4087897-.4821025 0-.812787-.3764078-.812787-.9234037 0-.8234083.574974-1.3035679 1.5621054-1.3035679.1011612 0 .2304299.009326.3628074.0260351.0274599-.111653.0347134-.1590601.0347134-.2192906 0-.223824-.1549152-.307758-.57057-.307758-.4353429-.004404-.794394.1040108-.9419262.1524542.009326-.0562151.12344-.7604578.12344-.7604578.4432442-.1303049.735718-.1790074 1.0648481-.1790074.7642141 0 1.1689885.3429896 1.1680818.9914058.0015543.1739559-.0273304.3878063-.0720175.6699179-.0771985.4896151-.2429941 1.539697-.265532 1.7952554z"/><path d="m11.2727649 15.2077755h-.8899856l.5100805-3.1957101-1.1384199 3.1957101h-.60631967l-.0749966-3.1778352-.53572701 3.1778352h-.8328638l.69569385-4.1574541h1.27960522l.0773281 2.3270966.78066411-2.3270966h1.423122z"/><path d="m27.4813566 13.7012376c-.0933895-.0106213-.1340613-.013989-.198048-.013989-.5047699 0-.7595511.1730491-.7595511.514873 0 .2104827.1239582.3442849.318768.3442849.3622893 0 .6236764-.3450621.6388311-.8451689zm.6476391 1.5065379h-.7372723l.0167091-.3503727c-.2248603.2766714-.5248467.4087897-.9322117.4087897-.4827501 0-.813046-.3764078-.813046-.9234037 0-.8234083.575233-1.3035679 1.5621054-1.3035679.1010316 0 .2300413.009326.3625483.0260351.0275894-.111653.0347134-.1590601.0347134-.2192906 0-.223824-.1549152-.307758-.57057-.307758-.4353429-.004404-.7942645.1040108-.9423148.1524542.0098442-.0562151.1242172-.7604578.1242172-.7604578.4429851-.1303049.735718-.1790074 1.06433-.1790074.7647322 0 1.1689885.3429896 1.1682113.9914058.0015543.1739559-.0270713.3878063-.0720175.6699179-.0769395.4896151-.2431236 1.539697-.2654024 1.7952554z"/><path d="m18.0655917 15.1563529c-.2436418.0766805-.4334001.1098396-.6393493.1098396-.4547721 0-.7030769-.2613871-.7030769-.7428419-.0063469-.1494751.0654115-.542592.1218857-.901125.051552-.3159183.3859928-2.3072788.3859928-2.3072788h.8842864l-.1032337.5117643h.5343022l-.1205904.8126575h-.5361156c-.1027155.6428465-.2492115 1.4438465-.2508953 1.5500593 0 .1743444.0930009.2505067.3047789.2505067.1014203 0 .1799141-.0103622.2398855-.0318638z"/><path d="m20.7773859 15.1290226c-.3038723.0928714-.5967346.1382062-.9074718.1371699-.9902401-.0012952-1.5064084-.5181112-1.5064084-1.5083513 0-1.1556471.6565764-2.0066448 1.5481163-2.0066448.729112 0 1.1950236.4764033 1.1950236 1.2232606 0 .2483048-.0318639.4902628-.109192.8316981h-1.7613191c-.0594533.4905218.2542631.6947871.7691361.6947871.3161774 0 .6019157-.065282.9193884-.2125551zm-.4971277-2.0043133c.0050515-.0705927.0936486-.6035996-.4118985-.6035996-.2813344 0-.4830092.2147571-.5647412.6035996z"/><path d="m14.6447623 12.8957041c0 .4273123.2072445.7222471.6774304.9438692.3602169.1695519.4163024.2196791.4163024.3731696 0 .2104827-.1590601.3060742-.5109872.3060742-.2656615 0-.5125415-.041708-.7973732-.1338022 0 0-.1167045.745562-.1222742.7811822.2021929.0437804.3824956.0845816.9259943.0999954.9388175 0 1.3724766-.3574967 1.3724766-1.1301301 0-.4644867-.1813389-.7371427-.6271736-.9423148-.3729106-.1711062-.4160434-.2094465-.4160434-.3672113 0-.1827638.1480503-.2761533.4354725-.2761533.174733 0 .4131937.018652.6394788.0506454l.1265487-.7841614c-.2303005-.0366564-.5797665-.0656706-.7831251-.0656706-.9952917 0-1.3399652.5197951-1.336727 1.1445077"/><path d="m25.1050395 11.8404411c.247139 0 .4779576.0642458.7951712.2244717l.1457188-.9022908c-.1308231-.051293-.5894811-.351927-.9780645-.351927-.5953098 0-1.099173.2958415-1.4529134.7829956-.5165569-.1709767-.7291121.1746035-.9892039.5191474l-.2312071.0538836c.0174862-.1133368.0334181-.2258965.0283666-.3400105h-.8175796c-.1113939 1.0467142-.3091829 2.1065108-.4639686 3.1536136l-.0405422.2274508h.8902446c.1485684-.9655003.2297824-1.5834775.279262-2.0021113l.335218-.1857429c.0503863-.1866496.2067263-.249341.5212199-.2416989-.0410604.2204563-.0633391.4526997-.0633391.6929738 0 1.106297.5976413 1.7949963 1.5551108 1.7949963.2467505 0 .458658-.0323819.7867519-.1217561l.1559515-.9473664c-.2950643.1449416-.5366337.2132028-.7556652.2132028-.5173341 0-.8304028-.3819775-.8304028-1.0129075 0-.9156321.4652639-1.5569242 1.1298711-1.5569242"/><path d="m32.6386358 11.0503214-.1977889 1.2011114c-.2428647-.3200632-.5042518-.551918-.8493139-.551918-.4489434 0-.8576036.3403991-1.125208.8416717-.3726515-.0773281-.7577377-.2087988-.7577377-.2087988l-.0002591.0032382c.0296619-.2801687.0422261-.4506273.039247-.5089148h-.81745c-.1110054 1.0467142-.3090534 2.1065108-.4637096 3.1536136l-.0409308.2274508h.8905037c.1202018-.7802755.212037-1.4289508.2797801-1.9426581.3043903-.275117.456715-.5143549.7635664-.4988116-.1361337.3292597-.2155343.7082581-.2155343 1.0971006 0 .8449099.4271827 1.4027861 1.0743037 1.4027861.326151 0 .5763987-.1125596.8204291-.3731696l-.041967.3144935h.8419307l.6778191-4.157195zm-1.1127734 3.3764014c-.302836 0-.4561969-.2246012-.4561969-.6665501 0-.6646072.286645-1.1356998.6901242-1.1356998.3058151 0 .4716107.2326319.4716107.6621461 0 .6703064-.2914376 1.1401038-.705538 1.1401038z"/></g><g fill="#fff"><path d="m11.5287118 14.961025h-.8897265l.509951-3.1957101-1.1381609 3.1957101h-.60657869l-.07486707-3.1771876-.53585654 3.1771876h-.83286381l.69569386-4.1570655h1.27960521l.03574968 2.5734585.86343236-2.5734585h1.3819322z"/><path d="m13.7199337 13.4550052c-.09326-.0108803-.1344498-.0138595-.1985661-.0138595-.5043813 0-.7595511.1727901-.7595511.5143549 0 .2102237.1246058.3448031.319027.3448031.3624188 0 .6236764-.3450621.6390902-.8452985zm.647121 1.5060198h-.7371428l.0168386-.3501137c-.2248602.2765419-.5249762.4087898-.9326002.4087898-.482232 0-.812787-.3769259-.812787-.9237923 0-.8235378.5751035-1.3030498 1.5622349-1.3030498.1009022 0 .2301709.0091965.3626779.0262942.0274599-.111912.0347134-.1594487.0347134-.2199382 0-.2236946-.1549152-.3069809-.57057-.3069809-.4354725-.0051812-.794394.1032336-.9420557.1515475.0094555-.055956.12344-.7601987.12344-.7601987.4433737-.1300459.7358475-.179137 1.0649776-.179137.7640846 0 1.1687294.3433783 1.1680818.9915354.0014248.1736968-.0272008.3885834-.0720175.6699178-.0773281.4892266-.2431237 1.5399561-.265791 1.7951259z"/><path d="m26.3018764 10.9158716-.1457188.9021612c-.3177317-.1597078-.5479026-.2243422-.7947826-.2243422-.6643481 0-1.1303892.6420693-1.1303892 1.5578309 0 .63093.3131983 1.0121303.8305323 1.0121303.2191611 0 .4612485-.067743.7556653-.2132027l-.1563401.9473663c-.3275758.0892447-.5396129.1218857-.7862338.1218857-.9581172 0-1.5548518-.6888289-1.5548518-1.7948668 0-1.4862021.8249626-2.5248856 2.0041838-2.5248856.3885834 0 .8475004.1646299.9779349.2159229"/><path d="m27.7373036 13.4550052c-.0927419-.0108803-.1340613-.0138595-.198048-.0138595-.5041223 0-.7594216.1727901-.7594216.5143549 0 .2102237.1244762.3448031.318768.3448031.3622892 0 .6238059-.3450621.6387016-.8452985zm.647639 1.5060198h-.7371427l.0167091-.3501137c-.2248603.2765419-.5249763.4087898-.9322117.4087898-.4827501 0-.8129165-.3769259-.8129165-.9237923 0-.8235378.5745854-1.3030498 1.5619758-1.3030498.1009022 0 .2299119.0091965.3622893.0262942.0275894-.111912.034843-.1594487.034843-.2199382 0-.2236946-.1545267-.3069809-.5704405-.3069809-.4350839-.0051812-.7938759.1032336-.9417967.1515475.009326-.055956.12344-.7601987.12344-.7601987.4433737-.1300459.7355885-.179137 1.0647186-.179137.7640846 0 1.169118.3433783 1.1680818.9915354.0018134.1736968-.0270713.3885834-.0718879.6699178-.0770691.4892266-.2428647 1.5399561-.2656616 1.7951259z"/><path d="m18.3215386 14.909732c-.2433827.0766805-.4334.1099691-.6390902.1099691-.4549016 0-.703336-.2615166-.703336-.7424534-.0062173-.1499932.0656706-.5424624.1222743-.901384.0511635-.3161774.3857338-2.3072788.3857338-2.3072788h.8845454l-.1034927.5116348h.4541245l-.120979.8123984h-.4555493c-.1027155.6434942-.2492115 1.443976-.2510249 1.5501888 0 .1748626.0933896.2505068.3049085.2505068.1014202 0 .1797846-.0099736.240015-.0319934z"/><path d="m21.0338509 14.8829197c-.3040017.0931305-.5975117.1370405-.9078604.1367814-.9903696-.0006476-1.5061493-.5181112-1.5061493-1.5082218 0-1.1560357.6564469-2.0070334 1.5473392-2.0070334.7298892 0 1.1955416.4764033 1.1955416 1.2241673 0 .2477867-.0323819.4896152-.1088033.83118h-1.7615782c-.0597123.4905218.2543926.6951757.7687475.6951757.3164365 0 .6020453-.065541.9199065-.2132027zm-.4972572-2.0049609c.0047925-.0707222.0937781-.60347-.4116394-.60347-.2815934 0-.4832682.2151456-.5652593.60347z"/><path d="m14.9007092 12.6489536c0 .4280894.2075036.7223766.6778191.9442578.3602168.1694223.4160433.2195496.4160433.3731696 0 .2107417-.1589306.3058151-.5111168.3058151-.2654024 0-.512412-.0411898-.7973731-.133025 0 0-.1165751.7450439-.1220152.780146.2020633.0442985.3824956.0847111.9257352.100384.9390766 0 1.3727357-.3573672 1.3727357-1.1300006 0-.4647458-.181598-.7372723-.6273032-.9419262-.37304-.1716243-.4159137-.209576-.4159137-.3675999 0-.1827638.1479207-.2768009.435602-.2768009.1743444 0 .4130641.0194291.6392197.051293l.1266782-.7840319c-.23043-.0363973-.5796369-.0661887-.7831251-.0661887-.9955508 0-1.3399652.5199247-1.3369861 1.1445077"/><path d="m33.0945737 14.961025h-.8416717l.041708-.314623c-.2441599.2607394-.4942781.3732991-.8204292.3732991-.6466028 0-1.0744331-.5572286-1.0744331-1.4030452 0-1.1245604.6633119-2.0724449 1.4478618-2.0724449.3450621 0 .6063197.1409262.8497024.461119l.1974004-1.2013705h.8775509zm-1.3127643-.7811822c.4146185 0 .7055379-.4695383.7055379-1.1391971 0-.4296437-.165666-.6630528-.4714812-.6630528-.4036086 0-.6901241.4712222-.6901241 1.1360884 0 .442467.1534904.6661615.4560674.6661615z"/><path d="m29.1864607 11.5802197c-.1112644 1.0464552-.3091829 2.1062517-.4639686 3.153484l-.0405422.2273213h.8899855c.3183794-2.0675229.3949303-2.471002.8943896-2.4206157.0794005-.4231673.2274508-.7937464.337679-.9805255-.3726515-.0777166-.5808027.1328956-.8535883.5331365.0217607-.1731787.0610076-.3411763.0536245-.5128006z"/><path d="m21.8617927 11.5802197c-.1117825 1.0464552-.3099601 2.1062517-.4644867 3.153484l-.0404127.2273213h.8902446c.3185089-2.0675229.3948008-2.471002.8934828-2.4206157.0799187-.4231673.228228-.7937464.3381971-.9805255-.3722629-.0777166-.5808027.1328956-.8530701.5331365.0215016-.1731787.0610076-.3411763.0532359-.5128006z"/></g></g></svg>