<svg height="25" viewBox="0 0 42 25" width="42" xmlns="http://www.w3.org/2000/svg"><g fill="none" fill-rule="evenodd"><rect fill="#5a2d82" height="25" rx="2" width="42"/><g fill="#fff"><path d="m20.7256406 9.31566565c-1.5258929 0-2.5648993 1.06975415-2.828512 2.56468765-.0377295.2138944-.0564885.4191146-.0564885.6137565 0 1.165594.6730657 1.9516366 1.9805507 1.9516366.6229948 0 1.1562146-.1332873 1.5792078-.3447134l-.0625533-.6892153c-.3822313.1515527-.7830806.2461232-1.1693317.2461232-.0698877 0-.1392817-.003103-.2079706-.0095205-.7013451-.0421019-1.0669331-.5287769-1.0669331-1.2792056 0-.15254.0150918-.3160108.0455575-.4888611.1803963-1.0229978.785972-1.7333698 1.6449347-1.7684899.2225686-.010931.4012723.0124119.5463369.0587452.1693948.0564884.2345576.1996488.2145997.411498l-.0010578.0799019.694434-.1777164.0133287-.0763053c.0148098-.0885761.0220736-.1712988.0220736-.2481682 0-.33533393-.1387881-.56008874-.4005671-.67905998-.2457706-.11156647-.5667885-.16509294-.9476094-.16509294zm5.5794491 5.03134925-.7616418-4.93656714h-1.2195436l-2.5024869 4.93656714h1.060022l.5574089-1.1498675h1.6563593l.1519757 1.1498675zm-2.6263242-1.8519884 1.0856921-2.2112295.3057851 2.2112295zm4.1023578-3.08457874-.8704577 4.93656714h.9879481l.3429504-1.9447959h.6390738l.488438 1.1943672c.162131.4091003.3934445.6346309.7038135.7213028.1244015.0339919.1894231.045628.4997216.045628.0844858 0 .187237-.0008462.3142478-.0023977l.2400581-.6780022c-.1100854-.0031735-.2081115-.0165727-.3002137-.0428776-.272287-.0808187-.4507791-.2558553-.5925996-.6018381l-.3737687-.8293433.2433023-.0202399c.5698209-.1781395 1.0245492-.6367466 1.1349873-1.2631265.0189705-.1075467.0279269-.2091694.0279269-.3049389 0-.81918804-.6549414-1.21030525-1.3062157-1.21030525zm.8639699.70289644h.932447c.3707363 0 .6492292.2071242.6492292.6179171 0 .058181-.0055712.1203818-.017278.1866728-.093019.5277895-.4890728.7813881-.9076937.7813881h-.9363257zm3.8751346-.70289644-.8704578 4.93656714h1.7183486c1.5258224 0 2.5482559-.9756773 2.8118686-2.4705403.0370948-.2105094.0555716-.410652.0555716-.5990878 0-1.1500791-.6859713-1.86686866-1.9969824-1.86686866zm.9065653.70296704h.6916836c.7285668 0 1.0715172.503953 1.0715172 1.2470474 0 .1616373-.0162202.3345582-.0482373.5160123-.1791268 1.016157-.7589619 1.7677142-1.6458514 1.7677142h-.6916836z"/><path d="m33.3268087 16.981188c-.1319343-.083387-.405798-.2470199-.247591-.6322567.0896696-.2158925.2370249-.3172706.6139801-.3172706h.946386c.047405 0 .0656816.0285572.0525453.075391l-.0182766.0596846c-.0608269.1927612-.1136577.2707224-.3455423.2707224h-.7116458c-.0631114 0-.1028059.0285572-.1028059.0782468 0 .0388378.0262726.0596845.0791035.093382l.5271661.3329772c.1819095.1145144.3926617.2732925.2478766.6322567-.1028059.2521601-.2584428.3147004-.5745711.3147004h-1.0386259c-.0528308 0-.0659671-.0288427-.0502606-.083387l.015992-.0519741c.0608269-.2001861.1236527-.2704369.3452567-.2704369h.7644766c.063397 0 .102806-.025987.102806-.075391 0-.0391234-.0262727-.0599701-.0791035-.0936677zm-13.0583569-.4968955c-.0025701-.0311273-.0105662-.0468338-.0448348-.0468338-.0316985 0-.0448348.0131363-.0528309.0468338l-.302992 1.1342925c-.0528308.2001861-.1239383.2704368-.3452567.2704368h-.126794c-.0525453 0-.0656816-.0288427-.0499751-.083387l.3849512-1.3941632c.0736776-.2707223.2001861-.3955174.5694308-.3955174.2530169 0 .3689592.0625403.3900916.3903771l.0656815 1.0300587c.0028558.0311274.0079961.0468338.0422647.0468338.0316985 0 .0448348-.0131363.0528309-.0468338l.2952816-1.1342925c.0525452-.2001861.1210825-.2704368.3426865-.2704368h.1290786c.0525453 0 .0659672.0285572.0499751.0831015l-.3795253 1.3944487c-.0736776.2704368-.1976159.3955174-.564005.3955174-.2584428 0-.3798109-.0625403-.3980875-.3903771zm5.4561412.4968955c-.1316488-.083387-.4055124-.2470199-.2475911-.6322567.0896697-.2158925.2373105-.3172706.6142657-.3172706h.9461005c.047405 0 .0659671.0285572.0528308.075391l-.0185622.0596846c-.0605413.1927612-.1133721.2707224-.3452567.2707224h-.7116457c-.0631115 0-.102806.0285572-.102806.0782468 0 .0388378.0262726.0596845.0791035.093382l.5271661.3329772c.1819095.1145144.3929473.2732925.2478767.6322567-.1030916.2521601-.2587284.3147004-.5748568.3147004h-1.0383402c-.0528309 0-.0659672-.0288427-.0502607-.083387l.0157064-.0519741c.0608269-.2001861.1239384-.2704369.3455423-.2704369h.7644766c.0631115 0 .102806-.025987.102806-.075391 0-.0391234-.0262726-.0599701-.0793891-.0936677zm-.38181-.9495273c.0525453 0 .0656816.0311274.0496896.0831015l-.0157065.0519741c-.0605413.2004717-.1239383.2707224-.3452567.2707224h-.0685373c-.2661532 0-.3241244.0936677-.3952318.356394l-.2241741.8247323c-.055401.2027563-.1239384.2704368-.3452568.2704368h-.1582069c-.0528309 0-.0659672-.0288427-.0499751-.083387l.350397-1.284789c.015992-.0548299.0025701-.0833871-.0499752-.0833871h-.5374467c-.0531164 0-.0662527-.0285572-.0505463-.0833871l.0159921-.0519741c.0605413-.2001861.1210825-.2704368.3426865-.2704368zm3.3737492 1.5869243c-.055401.2001861-.1239383.2704368-.3452567.2704368h-.158207c-.0528308 0-.0659671-.0288427-.0499751-.083387l.1633473-.6008438c.0157065-.0545443.0025701-.0831015-.0499751-.0831015h-.3955174c-.2661533 0-.3295503.0936677-.3980876.356394l-.0368388.1405015c-.0528308.2027563-.1239383.2704368-.3452567.2704368h-.158207c-.0528308 0-.0659671-.0288427-.0502607-.083387l.4112239-1.5035373c.055401-.2001861.1213682-.2704368.3426866-.2704368h.1584925c.0525453 0 .0656816.0285572.0499751.0831015l-.1447851.5308786c-.015992.0545443-.0028557.0831015.0496896.0831015h.3980876c.2661532 0 .32698-.0936677.3955174-.3563941l.0182766-.0702507c.0528308-.2027562.1239383-.2704368.3455423-.2704368h.1579213c.0531165 0 .0659672.0285572.0502607.0831015zm4.1619283-1.5869243c.0531164 0 .0662527.0285572.0502607.0831015l-.0105662.0391234c-.055401.2030418-.1213682.2704368-.3426866.2704368h-.5428726c-.1739134 0-.2241741.0548298-.2664388.2107522l-.0077104.0285572c-.0159921.0548299-.0025702.0833871.0499751.0833871h.7487701c.0525453 0 .0656816.0285572.0499752.0831015l-.0105662.0391234c-.055401.2027562-.1213682.2704368-.3426866.2704368h-.4192199c-.1739134 0-.2293144.0548298-.2687233.2107522l-.0157065.0625403c-.0134219.0545443-.0028557.0833871.0496895.0833871h.967804c.0525453 0 .0656816.0285572.0499751.0831015l-.0105661.0391233c-.055401.2027563-.1213682.2704368-.3426866.2704368h-1.2413821c-.0528308 0-.0659671-.0288427-.0502607-.083387l.3426866-1.2642278c.102806-.3772408.2555871-.5097463.6485343-.5097463zm-9.5104088 0c.0528309 0 .0659672.0285572.0502607.0831015l-.0105661.0391234c-.055401.2030418-.1213682.2704368-.3426866.2704368h-.5428726c-.1739134 0-.2241741.0548298-.2664388.2107522l-.0077105.0285572c-.015992.0548299-.0025701.0833871.0499752.0833871h.7484845c.0528309 0 .0659672.0285572.0502607.0831015l-.0105662.0391234c-.0554009.2027562-.1213681.2704368-.3426865.2704368h-.4189343c-.174199 0-.2296.0548298-.269009.2107522l-.0157064.0625403c-.0134219.0545443-.0025702.0833871.0499751.0833871h.9675184c.0525452 0 .0656816.0285572.0499751.0831015l-.0105662.0391233c-.055401.2027563-.1210826.2704368-.3426865.2704368h-1.2416677c-.0525452 0-.0656816-.0288427-.0499751-.083387l.3426866-1.2642278c.1028059-.3772408.255587-.5097463.6485343-.5097463zm7.1118884.9209701c.1053762-.3746706.1133722-.5542955-.3295502-.5542955-.302992 0-.397802.0833871-.5323065.562006-.1053761.3746706-.1159422.5540099.3215543.5540099.3215542 0 .4083681-.0962378.5403024-.5617204zm-1.3627502-.0314129c.1950458-.7699025.564005-.9286806 1.0911711-.9286806.8487204 0 .9252537.4112239.7750428.9989313-.1844796.7204985-.5034637.9286806-1.1043074.9286806-.7801831 0-.9255393-.3509681-.7619065-.9989313z"/><path d="m16.6126923 15.9925373v.2415506l.0198467.0021778c.0499661.0076223.0749081.0366939.0749081.0873174l.0000821 1.0008417c.1295995.0714359.2989541.1206623.4757255.1227168.3054874 0 .5713225-.1414952.5713225-.5116591 0-.3389556-.1703407-.5215208-.4104532-.5215208-.0982474 0-.1923858.0289483-.2590757.0975283v-.3621923c0-.1018839-.0548558-.1567398-.1567398-.1567398zm.6149606.7576887c.0994185 0 .145707.0778665.145707.1852771 0 .109198-.0462885.1834281-.145707.1834281-.0516096 0-.1099171-.0061431-.142543-.0182031l-.0000616-.3322169c.029503-.0123476.0933371-.0182852.1426046-.0182852zm1.6647618-.3118566h-.3814022l-.1496722.5256915-.1480697-.5256915h-.3814432l.3692599.992336h.0164773l-.0107863.0308179c-.0297084.0749696-.0859203.1111087-.1574999.1111087-.0531095 0-.1120333-.0178538-.1660468-.0412548l-.0393647.2362704c.0595607.0350297.1455426.0584718.2375648.0584718.1811064 0 .3761837-.0913442.4571525-.3358328z"/><path d="m10.0692876 10.6990129c0-.0840901-.0282914-.1261351-.11993692-.1261351-.0771752 0-.10546659.0348373-.13366522.1261351l-.80226962 2.8531471c-.16900627.6029533-.36565462.8202937-1.03425901.8202937h-.4783564c-.15509247 0-.19711214-.0840901-.14785729-.2524549l1.04835833-3.5962813c.24645975-.84810806.5840085-1.24767433 1.77336003-1.24767433.830561 0 1.2104077.19608687 1.2317422 1.23372093l.0492548 2.5519939c0 .0838128.0276421.1258579.1192876.1258579.0773608 0 .1054666-.0348373.1339435-.1258579l.8019914-2.8536091c.1688207-.60267609.3662111-.82029371 1.0349083-.82029371h.4783564c.1548142 0 .1966483.08427485.14795.25263973l-1.0487293 3.59655848c-.2462743.8481081-.5768661 1.2478591-1.7592607 1.2478591-.8446603 0-1.2245998-.1965489-1.2457487-1.2340905zm-1.6537013-2.6990129c-.99938176 0-1.52022161.46979531-1.79469448 1.44413083l-1.58339026 5.58025167c-.12652281.4554722.07031106.7502494.54189607.7502494h7.52986947c.9994745 0 1.5201288-.4694257 1.7943234-1.4442232l1.5833903-5.58025167c.1268938-.45584191-.0701256-.75015703-.5418033-.75015703z"/></g></g></svg>