<?xml version="1.0" encoding="UTF-8"?>
<svg width="42px" height="25px" viewBox="0 0 42 25" version="1.1" xmlns="http://www.w3.org/2000/svg" xmlns:xlink="http://www.w3.org/1999/xlink">
    <!-- Generator: Sketch 49 (51002) - http://www.bohemiancoding.com/sketch -->
    <title>Icon_Paypal</title>
    <desc>Created with Sketch.</desc>
    <defs></defs>
    <g id="Icon_Paypal" stroke="none" stroke-width="1" fill="none" fill-rule="evenodd">
        <rect id="Rectangle" stroke="#002F86" x="0.5" y="0.5" width="41" height="24"></rect>
        <g id="PayPal_2014_logo" transform="translate(3.000000, 8.000000)" fill-rule="nonzero">
            <path d="M19.7670533,2.4302574 L18.4236526,2.4302574 C18.2951785,2.4302574 18.1749813,2.49021019 18.103007,2.59047024 L16.2496683,5.15929514 L15.4644285,2.69073028 C15.4151261,2.53627562 15.26398,2.4302574 15.0926811,2.4302574 L13.7723122,2.4302574 C13.6128891,2.4302574 13.5006092,2.57793773 13.5520708,2.71985989 L15.0311431,6.80681154 L13.6398795,8.65450931 C13.5308384,8.79947991 13.6410311,9 13.8298917,9 L15.1718529,9 C15.2988876,9 15.418005,8.94140207 15.4906991,8.84317432 L19.9581451,2.77405451 C20.065027,2.62874519 19.9548919,2.4302574 19.7670533,2.4302574 M10.7858473,4.87880277 C10.6566534,5.59755889 10.0506296,6.08022971 9.27726555,6.08022971 C8.88968384,6.08022971 8.57911465,5.96269513 8.37974579,5.7404972 C8.18217628,5.52033156 8.10768286,5.20634149 8.17030052,4.85712492 C8.29049763,4.14446569 8.9065978,3.64655264 9.6680861,3.64655264 C10.0477506,3.64655264 10.3558007,3.76510336 10.5591282,3.9893336 C10.7638951,4.21525741 10.8445063,4.53094106 10.7858473,4.87880277 M12.6485427,2.43022217 L11.3119795,2.43022217 C11.1975404,2.43022217 11.1000152,2.50846565 11.0820216,2.61516131 L11.0233625,2.96674889 L10.9301558,2.83939154 C10.6404591,2.44410954 9.99520938,2.31167144 9.35103922,2.31167144 C7.87448607,2.31167144 6.61313612,3.36507934 6.3677037,4.8422214 C6.23994928,5.57926821 6.42132456,6.28345953 6.86540611,6.77493698 C7.27314063,7.22644589 7.855053,7.41443347 8.54852557,7.41443347 C9.7389808,7.41443347 10.3989853,6.69499991 10.3989853,6.69499991 L10.3392466,7.0445552 C10.3169346,7.17733202 10.4259757,7.29757633 10.5692046,7.29757633 L11.7726152,7.29757633 C11.963707,7.29757633 12.1260091,7.16717053 12.1558784,6.98968315 L12.8785006,2.68324329 C12.9008126,2.55046648 12.7914117,2.43022217 12.6485427,2.43022217 M4.627975,2.46043567 C4.47538945,3.40342203 3.71030244,3.40342203 2.97004656,3.40342203 L2.5489968,3.40342203 L2.84445138,1.64277437 C2.86207069,1.53641743 2.95961029,1.45817395 3.07404945,1.45817395 L3.2673005,1.45817395 C3.77112073,1.45817395 4.24687098,1.45817395 4.49230341,1.72813089 C4.63913102,1.8896986 4.68339523,2.12950978 4.627975,2.46043567 M4.30588993,0 L1.51472583,0 C1.32363401,0 1.16133192,0.130744517 1.13146258,0.308231892 L0.00290525881,7.04462295 C-0.0194067801,7.17739976 0.0896343133,7.29764407 0.232503337,7.29764407 L1.56546773,7.29764407 C1.75619967,7.29764407 1.91850176,7.16689955 1.9483711,6.98975089 L2.25318235,5.17219888 C2.28269182,4.99471151 2.44535378,4.86396699 2.63608572,4.86396699 L3.51921062,4.86396699 C5.3577946,4.86396699 6.41905593,4.02666014 6.69615706,2.36661124 C6.82103251,1.64108079 6.70119526,1.07068243 6.34024405,0.671335834 C5.94330568,0.232359426 5.23975672,4.81344904e-16 4.30588993,4.81344904e-16" id="path14519" fill="#002F86"></path>
            <path d="M34.2454601,0.199729189 L33.0982502,7.6011673 C33.0759043,7.74443037 33.1851109,7.87417117 33.3281968,7.87417117 L34.4822546,7.87417117 C34.673276,7.87417117 34.8361849,7.7331009 34.8657391,7.54159618 L35.9970906,0.27318806 C36.0194365,0.129924988 35.9102299,0.000184195379 35.7667836,0.000184195379 L34.4757671,0.000184195379 C34.3607938,0.000184195379 34.2631206,0.0846070773 34.2454601,0.199729189 M30.8022447,5.26411388 C30.6728547,6.0396349 30.0659111,6.5604254 29.2913733,6.5604254 C28.9032033,6.5604254 28.5921628,6.43360835 28.3924913,6.19386198 C28.1942615,5.95630842 28.1200155,5.61752049 28.1827282,5.24072399 C28.3031077,4.47178138 28.920143,3.93454486 29.682787,3.93454486 C30.0630278,3.93454486 30.3715454,4.06245831 30.5751815,4.30439748 C30.7802592,4.54816399 30.8609928,4.88877925 30.8022447,5.26411388 M32.6677672,2.62215278 L31.3291755,2.62215278 C31.2145627,2.62215278 31.1168894,2.70657567 31.0988685,2.82169778 L31.0401204,3.20105255 L30.9464118,3.06363695 C30.6566359,2.63713693 30.0104068,2.49423933 29.3652589,2.49423933 C27.8864647,2.49423933 26.6232003,3.63084176 26.3773954,5.22464344 C26.2494471,6.01989968 26.4310977,6.77970562 26.8758532,7.30999826 C27.2842066,7.7971658 27.8670022,8 28.5615273,8 C29.7537893,8 30.4147956,7.22374805 30.4147956,7.22374805 L30.3549662,7.60091001 C30.3326203,7.74417309 30.4418269,7.87391388 30.5852732,7.87391388 L31.7905103,7.87391388 C31.9818922,7.87391388 32.1444406,7.73320907 32.1743553,7.54170436 L32.8980742,2.89515665 C32.9204201,2.75189358 32.8108531,2.62215278 32.6677672,2.62215278 M24.6349916,2.65475244 C24.4821745,3.67221263 23.7159262,3.67221263 22.9745468,3.67221263 L22.552858,3.67221263 L22.848761,1.77251505 C22.8664359,1.65775841 22.9640947,1.57333553 23.0787076,1.57333553 L23.2722519,1.57333553 C23.7768368,1.57333553 24.2533092,1.57333553 24.4991141,1.86461274 C24.6461646,2.03894051 24.690496,2.29769116 24.6349916,2.65475244 M24.3124177,0 L21.5170172,0 C21.3256354,0 21.163087,0.14107027 21.1331723,0.332574989 L20.0029021,7.60098311 C19.9805562,7.74424618 20.0901232,7.87398697 20.2328486,7.87398697 L21.6673115,7.87398697 C21.8010265,7.87398697 21.9149185,7.77531088 21.9358227,7.64154995 L22.2565946,5.58068141 C22.2861488,5.38917669 22.4490577,5.24810642 22.6400791,5.24810642 L23.5245444,5.24810642 C25.3659189,5.24810642 26.428791,4.34467195 26.7063127,2.55351808 C26.8313777,1.77068772 26.7113585,1.15524125 26.3498595,0.724355636 C25.9523187,0.250710377 25.2477019,5.19359874e-16 24.3124177,5.19359874e-16" id="path14523" fill="#009CDE"></path>
        </g>
    </g>
</svg>