<svg height="25" viewBox="0 0 42 25" width="42" xmlns="http://www.w3.org/2000/svg"><g fill="none" fill-rule="evenodd"><path d="m0 0h42v25h-42z" fill="#26337a"/><g fill="#fff"><path d="m17.4257961 16.6096394 1.2913897-8.01111546h2.06424l-1.2912716 8.01111546z"/><path d="m26.9778058 8.79515493c-.408149-.1607831-1.0500658-.33611831-1.8497168-.33611831-2.0408632 0-3.4774722 1.0871493-3.4893967 2.64387038-.0129871 1.1515099 1.0251542 1.7936958 1.8078038 2.1764282.8043736.3923155 1.0746233.643369 1.0714355.9941578-.005549.5365352-.6420348.7823831-1.2355451.7823831-.8264517 0-1.2655336-.121031-1.9444046-.4201184l-.2655271-.127538-.2886677 1.7932226c.481349.2231323 1.3736806.4168056 2.2997787.4269802 2.1689632 0 3.5782994-1.0740169 3.5948284-2.7363887.0074381-.9131155-.5426245-1.6052282-1.7338955-2.1766648-.7213742-.3714929-1.1641161-.6175775-1.1590393-.9935662.0004722-.3329239.3740283-.6893915 1.1825341-.6893915.675211-.0108845 1.1639981.1450479 1.5448742.3078422l.1853613.0915719z"/><path d="m29.7264658 13.7693746c.1710755-.4604619.8223194-2.2392507.8223194-2.2392507-.0120426.0211775.1701309-.4640112.2743819-.7642816l.1393161.6909295s.3961065 1.912124.4776891 2.3126028zm2.5466516-5.16268728h-1.5952877c-.4948084 0-.8651768.14173522-1.0819432.66407324l-3.0655452 7.34171834h2.1681368s.3537213-.9876507.4340051-1.2043944c.2364833 0 2.3432265.0041409 2.6439368.0041409.0618658.2795661.2513594 1.2002535.2513594 1.2002535h1.9159509z"/><path d="m15.6940258 8.60526761-2.0204381 5.46165629-.2164122-1.1102197c-.3765078-1.2791662-1.5485342-2.6656394-2.8595226-3.3603549l1.8484181 7.0063099 2.1846658-.0013015 3.2507884-7.99609009z"/></g><path d="m11.7980148 8.59982535h-3.32882899l-.02739097.16598873c2.59021746.6636 4.30404196 2.26539722 5.01538066 4.19089012l-.7233813-3.68097462c-.1247942-.50766761-.4874884-.65815775-.9357794-.67590423" fill="#ed982d"/></g></svg>